<svg xmlns="http://www.w3.org/2000/svg" xmlns:xlink="http://www.w3.org/1999/xlink" width="256" zoomAndPan="magnify" viewBox="0 0 192 191.999996" height="256" preserveAspectRatio="xMidYMid meet" version="1.0"><defs><filter x="0%" y="0%" width="100%" height="100%" id="7879e2eb77"><feColorMatrix values="0 0 0 0 1 0 0 0 0 1 0 0 0 0 1 0 0 0 1 0" color-interpolation-filters="sRGB"/></filter><mask id="6c6cda5a97"><g filter="url(#7879e2eb77)"><rect x="-19.2" width="230.4" fill="#000000" y="-19.2" height="230.399995" fill-opacity="0.85"/></g></mask><clipPath id="663c5cdfd9"><path d="M 0 0 L 192 0 L 192 174 L 0 174 Z M 0 0 " clip-rule="nonzero"/></clipPath><clipPath id="1f9ffb419c"><rect x="0" width="192" y="0" height="174"/></clipPath><clipPath id="bf861b82a7"><path d="M 75.132812 19.199219 L 117.132812 19.199219 L 117.132812 64.949219 L 75.132812 64.949219 Z M 75.132812 19.199219 " clip-rule="nonzero"/></clipPath></defs><rect x="-19.2" width="230.4" fill="#ffffff" y="-19.2" height="230.399995" fill-opacity="1"/><rect x="-19.2" width="230.4" fill="#fef08a" y="-19.2" height="230.399995" fill-opacity="1"/><g mask="url(#6c6cda5a97)"><g transform="matrix(1, 0, 0, 1, 0, 12)"><g clip-path="url(#1f9ffb419c)"><path fill="#eab308" d="M 95.683594 0.960938 C 2.21875 0.960938 0 105.75 0 126.496094 C 0 147.238281 42.839844 164.039062 95.683594 164.039062 C 148.546875 164.039062 191.371094 147.226562 191.371094 126.496094 C 191.371094 105.75 189.164062 0.960938 95.683594 0.960938 Z M 95.683594 0.960938 " fill-opacity="1" fill-rule="nonzero"/><path fill="#2f2f2f" d="M 63.316406 87.703125 C 56.578125 87.765625 51.058594 81.300781 50.984375 73.273438 C 50.910156 65.21875 56.308594 58.648438 63.046875 58.589844 C 69.765625 58.53125 75.300781 64.996094 75.375 73.050781 C 75.449219 81.089844 70.050781 87.644531 63.316406 87.703125 Z M 129.480469 87.703125 C 136.199219 87.691406 141.644531 81.164062 141.628906 73.140625 C 141.613281 65.085938 136.140625 58.589844 129.421875 58.605469 C 122.683594 58.621094 117.226562 65.144531 117.238281 73.199219 C 117.269531 81.226562 122.746094 87.71875 129.480469 87.703125 Z M 129.480469 87.703125 " fill-opacity="1" fill-rule="nonzero"/><g clip-path="url(#663c5cdfd9)"><path stroke-linecap="round" transform="matrix(1.5, 0, 0, 1.5, 0.000002, -12)" fill="none" stroke-linejoin="miter" d="M 36.190105 81.169276 C 49.919273 97.841152 78.080733 97.841152 91.8099 81.169276 " stroke="#2f2f2f" stroke-width="6" stroke-opacity="1" stroke-miterlimit="10"/></g></g></g></g><g clip-path="url(#bf861b82a7)"><path fill="#000000" d="M 96.125 43 L 75.128906 64.90625 L 95.273438 42.074219 L 75.128906 19.242188 L 96.125 41.152344 L 117.121094 19.242188 L 96.972656 42.074219 L 117.121094 64.90625 L 96.125 43 " fill-opacity="1" fill-rule="nonzero"/></g></svg>